<?xml version="1.0" encoding="UTF-8"?>
<svg xmlns="http://www.w3.org/2000/svg" xmlns:xlink="http://www.w3.org/1999/xlink" width="50px" height="50px" viewBox="0 0 50 50" version="1.1">
<g id="surface1">
<path style=" stroke:none;fill-rule:nonzero;fill:rgb(52.941179%,52.156866%,100%);fill-opacity:1;" d="M 50 25 C 50 38.808594 38.808594 50 25 50 C 11.191406 50 0 38.808594 0 25 C 0 11.191406 11.191406 0 25 0 C 38.808594 0 50 11.191406 50 25 Z M 50 25 "/>
<path style=" stroke:none;fill-rule:evenodd;fill:rgb(100%,100%,100%);fill-opacity:1;" d="M 28.703125 17.589844 L 16.667969 17.589844 C 16.160156 17.589844 15.742188 18.007812 15.742188 18.519531 L 15.742188 31.480469 L 19.441406 27.777344 L 28.703125 27.777344 C 29.210938 27.777344 29.628906 27.359375 29.628906 26.851562 L 29.628906 18.519531 C 29.628906 18.007812 29.210938 17.589844 28.703125 17.589844 Z M 27.777344 19.441406 L 27.777344 25.925781 L 18.675781 25.925781 L 17.589844 27.007812 L 17.589844 19.441406 Z M 31.480469 21.296875 L 33.332031 21.296875 C 33.839844 21.296875 34.257812 21.710938 34.257812 22.222656 L 34.257812 36.109375 L 30.558594 32.410156 L 20.371094 32.410156 C 19.859375 32.410156 19.441406 31.992188 19.441406 31.480469 L 19.441406 29.628906 L 31.480469 29.628906 Z M 31.480469 21.296875 "/>
</g>
</svg>
